<?xml version="1.0" encoding="UTF-8"?>
<svg data-bbox="0 0 410.72 410.72" viewBox="0 0 410.72 410.72" xmlns="http://www.w3.org/2000/svg" data-type="color">
    <g>
        <path d="M410.72 205.36c0 113.417-91.943 205.36-205.36 205.36C91.943 410.72 0 318.777 0 205.36 0 91.943 91.943 0 205.36 0c113.417 0 205.36 91.943 205.36 205.36z" fill="#000000" data-color="1"/>
        <path d="M345.94 105.55c-7.22-7.22-18.93-7.22-26.15 0L159.41 265.93l-68.49-68.49c-7.22-7.22-18.93-7.22-26.15 0-7.22 7.22-7.22 18.93 0 26.15l81.56 81.56c7.22 7.22 18.93 7.22 26.15 0l13.07-13.07 160.38-160.39c7.22-7.22 7.22-18.93 0-26.15Z" fill="#ffffff" data-color="2"/>
    </g>
</svg>
